<?xml version="1.0" standalone="no"?>
<!DOCTYPE svg PUBLIC "-//W3C//DTD SVG 20010904//EN"
 "http://www.w3.org/TR/2001/REC-SVG-20010904/DTD/svg10.dtd">
<svg version="1.0" xmlns="http://www.w3.org/2000/svg"
 width="1000.000000pt" height="314.000000pt" viewBox="0 0 1000.000000 314.000000"
 preserveAspectRatio="xMidYMid meet">

<g transform="translate(0.000000,314.000000) scale(0.100000,-0.100000)"
fill="#000000" stroke="none">
<path d="M1418 2429 c-60 -14 -150 -63 -205 -113 -33 -30 -159 -201 -364 -493
-173 -245 -320 -457 -327 -470 -10 -19 -10 -24 0 -28 8 -3 103 -4 213 -3 l199
3 46 65 46 65 198 3 199 2 -6 -37 c-4 -21 -9 -53 -13 -70 l-6 -33 195 0 195 0
6 28 c15 74 186 1062 186 1076 0 14 -27 16 -262 15 -145 -1 -280 -5 -300 -10z
m99 -435 l-33 -189 -108 -3 -108 -3 20 28 c174 250 255 363 258 360 2 -2 -11
-88 -29 -193z"/>
<path d="M2114 2432 c-6 -4 -48 -219 -93 -478 -90 -510 -90 -514 -39 -579 41
-53 59 -55 413 -55 179 0 325 1 325 3 0 1 13 79 30 172 16 94 30 173 30 178 0
4 -81 7 -181 7 l-181 0 5 23 c20 79 126 720 122 728 -7 11 -415 12 -431 1z"/>
<path d="M2994 2428 c-19 -24 -138 -726 -139 -813 0 -186 109 -283 355 -316
108 -15 391 -6 485 15 98 22 206 76 260 131 81 80 97 131 160 488 30 175 55
330 55 344 0 44 -38 110 -78 135 -33 21 -51 23 -177 26 -77 1 -145 -1 -151 -5
-6 -4 -39 -168 -74 -363 -34 -195 -67 -364 -72 -375 -36 -70 -136 -117 -202
-95 -52 17 -84 47 -95 88 -9 30 -2 83 35 297 50 281 52 332 15 384 -40 56 -71
65 -227 69 -108 3 -142 1 -150 -10z"/>
<path d="M4324 2429 c-6 -11 -194 -1068 -194 -1095 0 -12 33 -14 189 -14 105
0 192 4 195 8 2 4 28 140 56 302 63 363 65 371 75 259 4 -47 17 -193 29 -325
l21 -239 185 0 185 0 135 307 c127 290 168 374 156 323 -11 -43 -106 -600
-106 -617 0 -17 14 -18 190 -18 144 0 192 3 195 13 2 6 41 220 85 475 72 411
79 467 70 505 -14 52 -63 104 -110 117 -19 5 -135 10 -257 10 -220 0 -223 0
-237 -22 -8 -13 -56 -117 -106 -233 -51 -115 -98 -221 -105 -235 l-13 -25 -6
35 c-3 19 -10 91 -16 160 -6 69 -16 143 -23 165 -17 58 -90 128 -149 143 -62
16 -434 16 -444 1z"/>
<path d="M5964 2433 c-6 -4 -53 -244 -103 -533 -50 -289 -94 -538 -97 -553
l-6 -29 429 4 c400 4 433 6 506 26 200 55 287 157 295 347 3 76 0 95 -16 121
-25 38 -77 64 -148 71 -30 3 -54 9 -54 13 0 4 21 10 46 14 56 7 130 39 162 69
34 32 58 83 72 155 25 123 0 187 -89 235 -97 53 -150 59 -586 64 -220 2 -405
0 -411 -4z m585 -238 c44 -22 54 -71 25 -126 -20 -40 -79 -66 -171 -75 -67 -6
-73 -5 -73 12 0 27 30 196 37 207 8 14 148 0 182 -18z m-69 -433 c47 -23 63
-57 49 -107 -13 -48 -54 -87 -107 -103 -51 -16 -172 -16 -172 -1 0 15 30 201
35 217 7 20 152 16 195 -6z"/>
<path d="M7215 2428 c-5 -12 -195 -1090 -195 -1103 0 -9 438 -6 444 4 3 4 20
92 38 195 17 102 35 186 38 186 3 0 61 -79 129 -176 74 -105 136 -183 155
-195 29 -17 53 -19 323 -19 230 0 294 3 305 13 7 8 31 39 52 70 l39 57 200 0
c178 0 198 -2 193 -16 -3 -9 -9 -40 -12 -70 l-7 -54 194 2 194 3 96 550 c53
303 95 553 92 558 -2 4 -118 7 -256 7 -275 0 -327 -7 -418 -57 -92 -50 -144
-112 -399 -478 -138 -198 -254 -361 -258 -362 -7 -2 -148 195 -157 220 -3 8
16 18 53 29 139 41 231 194 232 386 0 153 -106 228 -358 252 -161 15 -711 13
-717 -2z m570 -247 c44 -25 53 -61 29 -118 -15 -37 -28 -52 -64 -70 -46 -23
-170 -43 -170 -27 0 5 9 58 20 118 11 60 20 114 20 119 0 15 131 -2 165 -22z
m1245 -192 c-16 -95 -30 -177 -30 -181 0 -5 -47 -8 -105 -8 -58 0 -105 3 -105
6 0 15 265 382 268 370 2 -7 -11 -91 -28 -187z"/>
<path d="M7977 990 c-31 -44 -19 -54 21 -17 l24 22 19 -24 c26 -31 34 -21 19
23 -16 50 -46 48 -83 -4z"/>
<path d="M3418 1003 c-35 -3 -51 -9 -58 -24 -11 -20 3 -28 15 -9 4 6 23 7 45
4 32 -5 40 -3 49 15 7 11 8 20 4 19 -4 -1 -29 -3 -55 -5z"/>
<path d="M1769 891 c-51 -51 -39 -98 41 -155 41 -29 50 -42 50 -65 0 -32 -30
-61 -63 -61 -10 0 -29 11 -43 25 -20 20 -29 23 -40 14 -36 -30 44 -83 110 -72
69 11 109 95 71 150 -8 11 -35 33 -60 47 -36 22 -45 32 -45 54 0 16 5 33 12
40 16 16 59 15 85 -3 18 -12 23 -13 32 -1 18 22 -32 56 -81 56 -30 0 -46 -7
-69 -29z"/>
<path d="M2086 910 c-37 -12 -85 -56 -102 -97 -19 -43 -18 -117 2 -159 48
-100 217 -104 292 -6 21 28 27 48 30 101 3 56 0 71 -20 101 -41 61 -120 84
-202 60z m119 -46 c35 -16 65 -65 65 -106 -1 -41 -37 -106 -69 -122 -43 -23
-113 -21 -144 4 -68 54 -55 171 26 220 39 24 78 25 122 4z"/>
<path d="M2999 897 c-60 -32 -89 -84 -89 -162 0 -42 6 -70 20 -92 20 -33 66
-63 96 -63 11 0 15 -6 11 -20 -3 -13 0 -20 9 -20 20 0 30 -30 13 -40 -7 -5
-26 -6 -41 -3 -16 3 -28 1 -28 -5 0 -15 67 -24 90 -12 31 16 26 58 -7 71 l-28
11 25 8 c14 5 37 11 51 14 18 4 28 14 32 31 4 21 1 25 -12 19 -9 -4 -40 -10
-68 -12 -48 -3 -56 -1 -82 26 -54 53 -53 128 2 188 42 46 100 56 152 26 l35
-21 0 28 c0 24 -6 31 -31 40 -50 17 -102 13 -150 -12z"/>
<path d="M3330 909 c-32 -13 -78 -56 -96 -91 -21 -40 -18 -134 5 -172 42 -66
143 -90 225 -51 61 29 90 76 94 154 3 56 0 71 -20 101 -13 19 -39 43 -58 52
-38 20 -110 23 -150 7z m125 -45 c35 -16 65 -65 65 -106 -1 -41 -37 -106 -69
-122 -16 -9 -50 -16 -74 -16 -128 0 -159 170 -44 240 39 24 78 25 122 4z"/>
<path d="M3911 894 c-25 -21 -31 -33 -31 -65 0 -43 18 -67 69 -94 58 -29 66
-96 15 -115 -35 -14 -39 -13 -72 15 -26 22 -31 23 -42 10 -11 -13 -9 -20 9
-39 43 -45 135 -39 168 11 37 56 12 122 -59 159 -41 21 -53 50 -33 80 18 28
59 32 86 8 19 -17 39 -11 39 11 0 19 -51 45 -89 45 -17 0 -42 -11 -60 -26z"/>
<path d="M5112 758 c-51 -91 -92 -168 -92 -172 0 -3 10 -6 23 -6 15 0 28 11
42 38 20 37 20 37 92 40 l72 3 12 -41 c10 -32 17 -40 36 -40 28 0 32 -18 -42
194 l-52 149 -91 -165z m118 -50 c0 -5 -23 -8 -51 -8 -28 0 -49 3 -47 8 2 4
17 33 33 65 l30 58 17 -58 c10 -32 18 -61 18 -65z"/>
<path d="M5408 905 c-33 -19 -53 -72 -39 -108 6 -15 33 -40 61 -58 27 -17 50
-34 50 -39 0 -5 3 -15 6 -24 7 -17 -37 -66 -60 -66 -8 0 -28 12 -45 26 -25 21
-34 24 -46 14 -12 -10 -12 -15 1 -36 32 -48 139 -50 177 -3 10 12 17 38 17 61
0 41 -15 60 -89 116 -17 13 -31 32 -31 42 0 44 65 67 100 35 15 -13 19 -14 29
-1 9 11 6 18 -15 35 -31 24 -77 27 -116 6z"/>
<path d="M5992 756 c-50 -90 -92 -167 -92 -170 0 -3 10 -6 23 -6 15 0 29 12
45 40 l23 40 68 0 68 0 16 -40 c11 -29 21 -40 36 -40 12 0 21 4 21 8 0 5 -25
78 -55 162 -30 84 -56 157 -57 162 -2 5 -45 -65 -96 -156z m117 -38 c1 -15 -8
-18 -49 -18 l-50 0 32 65 33 66 17 -48 c9 -26 17 -56 17 -65z"/>
<path d="M7272 899 c-116 -58 -130 -240 -23 -303 78 -45 203 -11 248 69 31 55
32 139 0 186 -45 68 -142 89 -225 48z m163 -49 c58 -54 53 -143 -10 -199 -30
-26 -44 -31 -85 -31 -40 0 -56 5 -81 28 -88 78 -10 242 109 229 26 -3 53 -14
67 -27z"/>
<path d="M7675 907 c-39 -18 -80 -66 -95 -113 -16 -47 -8 -119 17 -152 37 -50
68 -65 132 -65 64 0 91 13 91 44 0 16 -4 17 -26 9 -14 -6 -44 -10 -67 -10 -68
1 -107 44 -107 120 0 105 100 171 190 125 25 -13 29 -13 34 2 4 9 0 23 -7 31
-21 20 -125 26 -162 9z"/>
<path d="M2396 883 c-8 -38 -36 -263 -36 -285 0 -16 10 -18 85 -18 84 0 85 0
85 25 0 24 -3 25 -60 25 -41 0 -60 4 -60 13 0 6 7 57 15 112 20 138 19 155 -4
155 -13 0 -21 -9 -25 -27z"/>
<path d="M2591 822 c-23 -181 -13 -223 60 -242 72 -20 142 8 173 68 8 15 19
70 25 122 7 52 14 105 17 118 4 18 0 22 -21 22 -14 0 -25 -6 -25 -12 -1 -40
-31 -222 -40 -238 -33 -62 -161 -48 -160 18 0 9 7 62 15 117 8 55 15 103 15
108 0 4 -11 7 -24 7 -22 0 -24 -5 -35 -88z"/>
<path d="M3645 878 c-11 -67 -35 -252 -35 -275 0 -22 2 -23 90 -23 89 0 90 0
90 25 0 24 -2 25 -65 25 -72 0 -71 -1 -59 73 l7 37 68 0 c62 0 69 2 69 20 0
18 -7 20 -65 20 -61 0 -65 1 -65 23 1 61 7 67 81 67 62 0 69 2 69 20 0 19 -7
20 -90 20 l-89 0 -6 -32z"/>
<path d="M4270 896 c0 -8 -9 -81 -20 -162 -11 -82 -20 -150 -20 -151 0 -2 11
-3 24 -3 22 0 24 5 31 68 4 38 10 74 14 80 3 6 36 12 71 14 52 2 65 6 68 21 3
15 -5 17 -68 17 -62 0 -71 2 -66 16 3 9 6 29 6 45 l0 29 69 0 c60 0 69 2 74
20 5 19 0 20 -89 20 -74 0 -94 -3 -94 -14z"/>
<path d="M4520 906 c0 -2 -9 -70 -20 -151 -11 -81 -20 -154 -20 -161 0 -11 21
-14 90 -14 89 0 90 0 90 25 0 24 -2 25 -66 25 l-66 0 6 31 c3 17 6 42 6 55 0
23 3 24 69 24 60 0 69 2 74 20 5 19 0 20 -65 20 l-70 0 6 31 c3 17 6 38 6 45
0 11 17 14 70 14 63 0 70 2 70 20 0 19 -7 20 -90 20 -49 0 -90 -2 -90 -4z"/>
<path d="M4770 901 c0 -5 -9 -76 -20 -157 -11 -82 -20 -152 -20 -156 0 -5 10
-8 23 -8 23 0 24 5 41 143 10 78 20 152 23 165 4 18 1 22 -21 22 -14 0 -26 -4
-26 -9z"/>
<path d="M4860 890 c0 -17 7 -20 40 -20 48 0 48 0 25 -155 -20 -136 -19 -137
8 -133 21 3 23 12 41 146 l19 142 43 0 c37 0 44 3 44 20 0 19 -7 20 -110 20
-103 0 -110 -1 -110 -20z"/>
<path d="M5760 908 c0 -2 -9 -70 -20 -152 -25 -185 -25 -178 3 -174 20 3 23
11 30 76 l9 72 54 0 c73 0 104 28 104 94 0 64 -30 86 -116 86 -35 0 -64 -1
-64 -2z m124 -54 c20 -19 20 -34 0 -62 -11 -17 -25 -22 -56 -22 l-41 0 7 38
c3 20 6 43 6 50 0 18 65 15 84 -4z"/>
<path d="M6269 908 c0 -2 -10 -76 -23 -165 l-22 -163 22 0 c18 0 23 7 29 43
14 91 17 107 24 107 3 0 26 -34 51 -75 l45 -75 50 2 c47 3 51 6 70 40 l20 38
71 0 71 0 12 -40 c10 -33 16 -40 37 -40 21 0 25 4 19 18 -3 9 -30 83 -58 165
-28 81 -54 147 -57 147 -4 0 -42 -64 -85 -142 -111 -202 -95 -190 -144 -113
-22 36 -41 68 -41 69 0 2 14 9 30 16 38 16 50 37 50 89 0 57 -33 81 -111 81
-33 0 -59 -1 -60 -2z m115 -57 c34 -38 -7 -91 -70 -91 -15 0 -19 47 -8 88 8
28 53 30 78 3z m270 -125 c6 -25 5 -26 -44 -26 -27 0 -50 2 -50 5 0 3 14 34
31 68 l32 62 12 -42 c7 -23 15 -53 19 -67z"/>
<path d="M6900 903 c0 -10 89 -315 93 -319 3 -3 176 294 185 318 2 4 -7 8 -20
8 -20 0 -33 -17 -81 -106 -31 -58 -57 -109 -57 -115 0 -5 -4 -9 -8 -9 -5 0
-22 51 -38 113 -26 97 -33 112 -52 115 -12 2 -22 0 -22 -5z"/>
<path d="M7916 888 c-8 -38 -36 -258 -36 -284 0 -24 2 -24 90 -24 89 0 90 0
90 25 0 24 -2 25 -65 25 -72 0 -71 -1 -59 73 l7 37 68 0 c62 0 69 2 69 20 0
18 -7 20 -65 20 -61 0 -65 1 -65 23 1 61 7 67 81 67 62 0 69 2 69 20 0 19 -7
20 -90 20 -85 0 -90 -1 -94 -22z"/>
</g>
</svg>
